<?xml version="1.0" encoding="UTF-8"?>
<svg viewBox="0 0 500 383" xmlns="http://www.w3.org/2000/svg">
<defs>
<linearGradient id="a" x1=".516" x2=".512" y1=".93" y2=".269">
<stop stop-color="#fff" offset="0"/>
<stop stop-color="#94c9ff" offset="1"/>
</linearGradient>
</defs>
<g transform="translate(-678 -214)">
<path transform="translate(604 192)" d="M74,405V64a42,42,0,0,1,42-42H532a42,42,0,0,1,42,42V405Z" fill="url(#a)" data-name="Intersection 1"/>
<g transform="translate(319 24)" fill="#fff">
<rect transform="translate(461 301)" width="161" height="66" rx="33" data-name="Rectangle 8"/>
<ellipse transform="translate(466 253)" cx="38" cy="37.5" rx="38" ry="37.5" data-name="Ellipse 5"/>
<ellipse transform="translate(518 278)" cx="38" cy="37.5" rx="38" ry="37.5" data-name="Ellipse 6"/>
</g>
<g transform="translate(581 144)" fill="#fff" data-name="cloud2">
<rect transform="translate(461 290)" width="123" height="50" rx="25" data-name="Rectangle 8"/>
<ellipse transform="translate(465 253)" cx="29" cy="28.5" rx="29" ry="28.5" data-name="Ellipse 5"/>
<ellipse transform="translate(505 272)" cx="29" cy="28.5" rx="29" ry="28.5" data-name="Ellipse 6"/>
</g>
<path transform="translate(626 295)" d="M52,164V39.241A41.536,41.536,0,0,1,87.555,69.606a41.54,41.54,0,0,1,55.476,22.451A36,36,0,0,1,141,164Z" fill="#fff" data-name="Intersection 2"/>
<g transform="translate(979 267)" fill="#f8ff24" stroke="#fffdbe" stroke-linejoin="round" stroke-width="10">
<circle cx="77.5" cy="77.5" r="77.5" stroke="none"/>
<circle cx="77.5" cy="77.5" r="72.5" fill="none"/>
</g>
</g>
</svg>
