<?xml version="1.0" encoding="UTF-8"?>
<svg viewBox="0 0 500 383" xmlns="http://www.w3.org/2000/svg">
<defs>
<linearGradient id="a" x1=".516" x2=".512" y1=".93" y2=".269">
<stop stop-color="#fff" offset="0"/>
<stop stop-color="#0c0d43" offset="1"/>
</linearGradient>
</defs>
<g transform="translate(-678 -214)" data-name="night image">
<path transform="translate(604 192)" d="M74,405V64a42,42,0,0,1,42-42H532a42,42,0,0,1,42,42V405Z" fill="url(#a)" data-name="Intersection 1"/>
<g transform="translate(259 38)" fill="#56567c">
<rect transform="translate(461 301)" width="161" height="66" rx="33" data-name="Rectangle 8"/>
<ellipse transform="translate(466 253)" cx="38" cy="37.5" rx="38" ry="37.5" data-name="Ellipse 5"/>
<ellipse transform="translate(518 278)" cx="38" cy="37.5" rx="38" ry="37.5" data-name="Ellipse 6"/>
</g>
<g transform="translate(584 36)" fill="#56567c" data-name="cloud2">
<rect transform="translate(461 290)" width="123" height="50" rx="25" data-name="Rectangle 8"/>
<ellipse transform="translate(465 253)" cx="29" cy="28.5" rx="29" ry="28.5" data-name="Ellipse 5"/>
<ellipse transform="translate(505 272)" cx="29" cy="28.5" rx="29" ry="28.5" data-name="Ellipse 6"/>
</g>
<g transform="translate(-222 58)">
<path transform="translate(978 199)" d="M75,194A75,75,0,1,1,75,44a75.9,75.9,0,0,1,11.308.847A74.455,74.455,0,0,0,80,75c0,36.785,27.382,68.664,63.692,74.154A75.022,75.022,0,0,1,75,194Z" fill="#fff598" data-name="Subtraction 2"/>
<path transform="translate(978 231)" d="M75,162A74.938,74.938,0,0,1,0,87a75.035,75.035,0,0,1,30.994-60.74A75,75,0,0,0,132.005,135.74,75.259,75.259,0,0,1,106.9,154.9a74.6,74.6,0,0,1-15.3,5.26A75.434,75.434,0,0,1,75,162Z" fill="#e3d873" data-name="Subtraction 1"/>
</g>
<path transform="translate(626 295)" d="M52,164V39.241A41.536,41.536,0,0,1,87.555,69.606a41.54,41.54,0,0,1,55.476,22.451A36,36,0,0,1,141,164Z" fill="#56567c" data-name="Intersection 2"/>
</g>
</svg>
